<?xml version="1.0" encoding="iso-8859-1"?>
<!-- Generator: Adobe Illustrator 22.0.1, SVG Export Plug-In . SVG Version: 6.00 Build 0)  -->
<svg xmlns="http://www.w3.org/2000/svg" xmlns:xlink="http://www.w3.org/1999/xlink" version="1.1" id="Layer_1" x="0px" y="0px" viewBox="0 0 64 64" style="enable-background:new 0 0 64 64;" xml:space="preserve" width="64px" height="64px">
<linearGradient id="SVGID_1__69476" gradientUnits="userSpaceOnUse" x1="32" y1="24" x2="32" y2="40" spreadMethod="reflect">
	<stop offset="0" style="stop-color:#6DC7FF"/>
	<stop offset="1" style="stop-color:#E6ABFF"/>
</linearGradient>
<circle style="fill:url(#SVGID_1__69476);" cx="32" cy="32" r="8"/>
<linearGradient id="SVGID_2__69476" gradientUnits="userSpaceOnUse" x1="32" y1="3" x2="32" y2="61" spreadMethod="reflect">
	<stop offset="0" style="stop-color:#1A6DFF"/>
	<stop offset="1" style="stop-color:#C822FF"/>
</linearGradient>
<path style="fill:none;stroke:url(#SVGID_2__69476);stroke-width:2;stroke-miterlimit:10;" d="M53.004,32  c0-11.6-9.404-21.004-21.004-21.004c-0.859,0-1.701,0.067-2.533,0.167c0-0.008,0.002-0.018,0.002-0.026  c0.076-3,2.471-6.355,2.471-6.355c0.247-0.505-0.315-0.985-0.798-0.695c-4.012,2.398-10.894,5.695-17.203,17.215  c0.002,0.001-2.943,5.228-2.943,10.698c0,11.6,9.404,21.004,21.004,21.004c0.859,0,1.701-0.067,2.533-0.167  c0,0.008-0.002,0.018-0.002,0.026c-0.076,3-2.471,6.355-2.471,6.355c-0.247,0.505,0.315,0.985,0.798,0.695  c4.012-2.398,10.894-5.695,17.203-17.215C50.058,42.697,53.004,37.826,53.004,32z"/>
</svg>
