<?xml version="1.0" encoding="iso-8859-1"?>
<!-- Generator: Adobe Illustrator 22.0.1, SVG Export Plug-In . SVG Version: 6.00 Build 0)  -->
<svg xmlns="http://www.w3.org/2000/svg" xmlns:xlink="http://www.w3.org/1999/xlink" version="1.1" id="Layer_1" x="0px" y="0px" viewBox="0 0 64 64" style="enable-background:new 0 0 64 64;" xml:space="preserve" width="64px" height="64px">
<linearGradient id="SVGID_1__69504" gradientUnits="userSpaceOnUse" x1="36.5" y1="25" x2="36.5" y2="46" spreadMethod="reflect">
	<stop offset="0" style="stop-color:#6DC7FF"/>
	<stop offset="1" style="stop-color:#E6ABFF"/>
</linearGradient>
<path style="fill:url(#SVGID_1__69504);" d="M44,25v13.5c0,0.828-0.672,1.5-1.5,1.5h-12c-0.828,0-1.5-0.672-1.5-1.5V25h-6v14.5  c0,3.59,2.91,6.5,6.5,6.5H50V25H44z"/>
<linearGradient id="SVGID_2__69504" gradientUnits="userSpaceOnUse" x1="36.5" y1="4.3333" x2="36.5" y2="59.8373" spreadMethod="reflect">
	<stop offset="0" style="stop-color:#1A6DFF"/>
	<stop offset="1" style="stop-color:#C822FF"/>
</linearGradient>
<path style="fill:url(#SVGID_2__69504);" d="M39.399,60C30.093,60,13,51.651,13,38.01C13,22.565,24.535,10,38.714,10  C43.846,10,60,18.517,60,33.292C60,48.578,49.124,60,39.399,60z M38.714,12C25.638,12,15,23.668,15,38.01  C15,50.215,31.021,58,39.399,58C48.001,58,58,47.207,58,33.292C58,19.751,42.843,12,38.714,12z"/>
<linearGradient id="SVGID_3__69504" gradientUnits="userSpaceOnUse" x1="24" y1="4.3333" x2="24" y2="59.8373" spreadMethod="reflect">
	<stop offset="0" style="stop-color:#1A6DFF"/>
	<stop offset="1" style="stop-color:#C822FF"/>
</linearGradient>
<path style="fill:url(#SVGID_3__69504);" d="M24,12c-2.206,0-4-1.794-4-4s1.794-4,4-4s4,1.794,4,4S26.206,12,24,12z M24,6  c-1.103,0-2,0.897-2,2s0.897,2,2,2s2-0.897,2-2S25.103,6,24,6z"/>
<linearGradient id="SVGID_4__69504" gradientUnits="userSpaceOnUse" x1="11" y1="4.3333" x2="11" y2="59.8373" spreadMethod="reflect">
	<stop offset="0" style="stop-color:#1A6DFF"/>
	<stop offset="1" style="stop-color:#C822FF"/>
</linearGradient>
<path style="fill:url(#SVGID_4__69504);" d="M10.861,21.513C7.691,21.513,3,19.386,3,14.82C3,9.792,6.485,6,11.107,6  C13.837,6,19,7.483,19,13.098C19,19.271,14.133,21.513,10.861,21.513z M11.107,8C7.098,8,5,11.431,5,14.82  c0,3.58,4.296,4.692,5.861,4.692c2.123,0,6.139-1.341,6.139-6.415C17,8.058,11.348,8,11.107,8z"/>
</svg>
